<svg id="Layer_1" data-name="Layer 1" xmlns="http://www.w3.org/2000/svg" viewBox="0 0 26 26"><defs><style>.cls-1{fill:#fff;}</style></defs><title>Signature white</title><path class="cls-1" d="M11.5,8.91h5.61c0,.53,0,.9,0,1.37a1,1,0,0,1-.38.91c-1.3,1.27-2.53,2.62-3.9,3.82a3.2,3.2,0,0,0-1.28,3.12,12.76,12.76,0,0,1,0,1.75,10.88,10.88,0,0,0-1.48-1.12,1.89,1.89,0,0,0-1.8.2c-.2-.58-.39-1.13-.57-1.67a1.06,1.06,0,0,0-2,0c-.17.55-.39,1.09-.54,1.64s-.42,1.11-1.23,1a.63.63,0,0,0-.69.65.67.67,0,0,0,.61.73,2.05,2.05,0,0,0,2.46-1.38c.13-.37.25-.75.41-1.23.25.75.44,1.42.71,2a.92.92,0,0,0,.62.53c.24,0,.51-.26.73-.45s.17-.34.27-.5c.26-.44.61-.46.89,0a2.05,2.05,0,0,0,1.94,1c1.55,0,3.11,0,4.67,0l.59,0c0,.48,0,2.44,0,2.86H.44V1.78H1.88c2.57,0,5.14,0,7.72,0h.54V8.91Z"/><path class="cls-1" d="M19.88,9.82l-6.75,6.92a.71.71,0,0,0-.18.34c0,.92,0,1.85,0,2.82.88,0,1.71,0,2.55,0a1.22,1.22,0,0,0,.75-.32c2.14-2.11,4.25-4.25,6.37-6.39.11-.1.2-.22.3-.33Z"/><path class="cls-1" d="M11.59,1.78v5.6h5.64"/><path class="cls-1" d="M24,11.86l.77-.83.36-.38a1,1,0,0,0,0-1.51q-.68-.73-1.41-1.41a1,1,0,0,0-1.51,0c-.41.37-.81.76-1.2,1.12Z"/><path class="cls-1" d="M19.88,9.82l3,3c-.1.11-.19.23-.3.33-2.12,2.14-4.23,4.28-6.37,6.39a1.22,1.22,0,0,1-.75.32c-.84,0-1.67,0-2.55,0,0-1,0-1.9,0-2.82a.71.71,0,0,1,.18-.34Z"/><path class="cls-1" d="M17.23,7.38H11.59V1.78Z"/><path class="cls-1" d="M24,11.86l-3-3c.39-.36.79-.75,1.2-1.12a1,1,0,0,1,1.51,0q.73.67,1.41,1.41a1,1,0,0,1,0,1.51l-.36.38Z"/></svg>