<svg id="Layer_1" data-name="Layer 1" xmlns="http://www.w3.org/2000/svg" viewBox="0 0 26 26"><defs><style>.cls-1{fill:#fff;}</style></defs><title>Reviewer white</title><g id="Group_5502" data-name="Group 5502"><g id="Group_12" data-name="Group 12"><path id="Path_5138" data-name="Path 5138" class="cls-1" d="M20,7.29h-6.8V.57Z"/><path id="Path_5" data-name="Path 5" class="cls-1" d="M12.3,8.27V3c0-.21,0-.42,0-.63v-2H.51V24.79H15.83a6.43,6.43,0,0,1,.16-9l.07-.07A6.4,6.4,0,0,1,20.27,14V8.27h-8ZM4.44,5.14A2.37,2.37,0,0,1,7.16,3.31,2.5,2.5,0,0,1,9.2,6,4,4,0,0,1,7.82,8.58a1.47,1.47,0,0,1-2.06,0A3.62,3.62,0,0,1,4.44,5.14ZM2.49,10.21a1.94,1.94,0,0,1,2.28-1.5.5.5,0,0,1,.29.18A2.37,2.37,0,0,0,8.41,9l.15-.15a.38.38,0,0,1,.29-.15c1.48.07,2.14.37,2.32,1.95,0,.16,0,.32,0,.48.06,1.5-.33,1.88-1.85,2.15-1.31,0-4,0-5.15,0a1.75,1.75,0,0,1-1.83-2.12A6.32,6.32,0,0,1,2.49,10.21ZM12.88,20.83h0a1.2,1.2,0,0,1-1.22.7H3.52c-.68,0-1.17-.41-1.17-.94s.46-.93,1.15-.94h8.2c.85,0,1.38.54,1.18,1.18Zm-.57-2.55H3.58a1.15,1.15,0,0,1-1.2-.72.83.83,0,0,1,.52-1,2,2,0,0,1,.73-.14c1.45,0,2.9,0,4.35,0h4.34c.79,0,1.27.37,1.27.94s-.51.93-1.28.93Z"/><path id="Path_3532" data-name="Path 3532" class="cls-1" d="M25.41,19.31A5.31,5.31,0,0,0,19.62,15a5.26,5.26,0,0,0,.32,10.46,5.16,5.16,0,0,0,5.31-3.72c.08-.32.16-.56.24-.88V19.54C25.49,19.47,25.41,19.39,25.41,19.31Zm-8.24.86,1.24-1.24,1.24,1.24,2.48-2.48,1.23,1.24-3.71,3.72Z"/></g></g></svg>