<svg id="Layer_1" data-name="Layer 1" xmlns="http://www.w3.org/2000/svg" viewBox="0 0 26 26"><defs><style>.cls-1{fill:#f47820;}</style></defs><title>Contract Type ORANGE</title><g id="_2zI2Gg.tif" data-name="2zI2Gg.tif"><path class="cls-1" d="M3.21,25.33,3.42.51h.14L15.9.61a.36.36,0,0,1,.27.12l5.24,5.33c.43.43.86.87,1.28,1.31a.39.39,0,0,1,.1.25q0,3.35-.05,6.7,0,5.47-.1,11v.21Zm7.62-4.87c.13-.2.25-.37.36-.55a4.24,4.24,0,0,0,.69-2.59A1.44,1.44,0,0,0,10.46,16a1.66,1.66,0,0,0-1.5.84,3.31,3.31,0,0,0-.12,3.59c.07.12.15.23.22.36-.16.14-.32.26-.48.39a.53.53,0,0,0-.12.78.53.53,0,0,0,.8.06c.2-.16.39-.33.6-.49a.22.22,0,0,1,.17-.06,2.36,2.36,0,0,0,1.12.05A3.47,3.47,0,0,0,13.54,20l.18-.25c0,.12.08.22.12.31a.7.7,0,0,0,1.11.44,5.61,5.61,0,0,0,.67-.45,3,3,0,0,1,1.56-.79.48.48,0,0,0,.39-.46.47.47,0,0,0-.31-.52,1.14,1.14,0,0,0-.52,0,3,3,0,0,0-1.33.62l-.67.51a2.23,2.23,0,0,0-.12-.31,3.57,3.57,0,0,0-.26-.56.65.65,0,0,0-1-.09,2.48,2.48,0,0,0-.19.26c-.27.38-.52.79-.82,1.15A2.07,2.07,0,0,1,10.83,20.46ZM15.78,7.62l5.67,0L15.83,2ZM7.13,9.18v1.06l12.41.11V9.29Zm0,3.22,12.4.11V11.45l-12.4-.11Zm12.4,1.21-12.41-.1v1.06l12.41.1ZM7.17,4.86V5.92l7,.06V4.92Zm7,2.23L7.15,7V8.08l7,.07Z"/></g></svg>