<svg xmlns="http://www.w3.org/2000/svg" xmlns:xlink="http://www.w3.org/1999/xlink" viewBox="0 0 24 18"><defs><style>.cls-1{fill:none;}.cls-2{clip-path:url(#clip-path);}.cls-3{fill:rgb(0, 65,132);}</style><clipPath id="clip-path" transform="translate(-1 -1)"><rect class="cls-1" width="26" height="20"/></clipPath></defs><title>Edit</title><g id="Layer_2" data-name="Layer 2"><g id="Layer_4" data-name="Layer 4"><g class="cls-2"><path class="cls-3" d="M19.94,12.89v2.43a3.46,3.46,0,0,1-1.14,2.6A3.84,3.84,0,0,1,16.07,19H4.87a3.83,3.83,0,0,1-2.74-1.08A3.46,3.46,0,0,1,1,15.32V4.68a3.46,3.46,0,0,1,1.14-2.6A3.83,3.83,0,0,1,4.87,1H16.07a3.88,3.88,0,0,1,1.57.32.39.39,0,0,1,.24.29.39.39,0,0,1-.12.37l-.66.63a.41.41,0,0,1-.43.1,2.51,2.51,0,0,0-.61-.08H4.87a2.13,2.13,0,0,0-1.52.6,1.92,1.92,0,0,0-.63,1.45V15.32a1.92,1.92,0,0,0,.63,1.44,2.13,2.13,0,0,0,1.52.6H16.07a2.13,2.13,0,0,0,1.52-.6,1.92,1.92,0,0,0,.63-1.44V13.71a.37.37,0,0,1,.12-.28l.86-.82a.42.42,0,0,1,.47-.09A.37.37,0,0,1,19.94,12.89ZM18.65,3.45l3.88,3.68-9,8.59H9.61V12Zm-5.7,11L14.51,13l-2-1.94L10.9,12.56v.72h1.29V14.5Zm5.92-9.21a.29.29,0,0,0-.44,0L13.71,9.78a.26.26,0,0,0,0,.42.29.29,0,0,0,.44,0l4.71-4.47A.26.26,0,0,0,18.87,5.29Zm5.76-.15L23.39,6.32,19.51,2.64l1.24-1.18a1.35,1.35,0,0,1,1.83,0l2,1.94a1.19,1.19,0,0,1,0,1.74Z" transform="translate(-1 -1)"/></g></g></g></svg>