<svg xmlns="http://www.w3.org/2000/svg" xmlns:xlink="http://www.w3.org/1999/xlink" viewBox="0 0 19.51 12.54"><defs><style>.cls-1{fill:none;}.cls-2{clip-path:url(#clip-path);}.cls-3{fill:rgb(0, 65,132);}</style><clipPath id="clip-path" transform="translate(-3.24 -3.73)"><rect class="cls-1" width="26" height="20"/></clipPath></defs><title>Quick view</title><g id="Layer_2" data-name="Layer 2"><g id="Layer_4" data-name="Layer 4"><g class="cls-2"><path class="cls-3" d="M22.76,10a1.51,1.51,0,0,1-.22.75,11.57,11.57,0,0,1-4.1,4,10.55,10.55,0,0,1-10.88,0,11.62,11.62,0,0,1-4.1-4,1.4,1.4,0,0,1,0-1.5,11.64,11.64,0,0,1,4.1-4,10.53,10.53,0,0,1,10.88,0,11.64,11.64,0,0,1,4.1,4A1.51,1.51,0,0,1,22.76,10Zm-1.39,0a10.7,10.7,0,0,0-4.15-3.84,4.77,4.77,0,0,1,.66,2.45,4.7,4.7,0,0,1-1.43,3.45A4.69,4.69,0,0,1,13,13.48a4.69,4.69,0,0,1-3.45-1.43A4.7,4.7,0,0,1,8.12,8.61a4.77,4.77,0,0,1,.66-2.45A10.7,10.7,0,0,0,4.64,10a11.23,11.23,0,0,0,3.63,3.55,9.12,9.12,0,0,0,9.46,0A11.24,11.24,0,0,0,21.36,10Zm-8-3.81A.52.52,0,0,0,13,5.3a3.18,3.18,0,0,0-2.34,1,3.19,3.19,0,0,0-1,2.34.52.52,0,1,0,1,0A2.26,2.26,0,0,1,13,6.34.5.5,0,0,0,13.37,6.19Z" transform="translate(-3.24 -3.73)"/></g></g></g></svg>