<svg version="1.1" id="Layer_1" xmlns="http://www.w3.org/2000/svg" xmlns:xlink="http://www.w3.org/1999/xlink" x="0px" y="0px"
	 viewBox="0 0 512 512" style="enable-background:new 0 0 512 512;" xml:space="preserve">
  <path d="m364 449.070312c-.648438 0-1.3125-.0625-1.949219-.191406-.640625-.128906-1.269531-.320312-1.871093-.570312-.609376-.25-1.1875-.558594-1.726563-.917969-.554687-.371094-1.0625-.78125-1.523437-1.25-.460938-.460937-.878907-.96875-1.238282-1.519531-.359375-.542969-.671875-1.121094-.921875-1.722656-.25-.609376-.4375-1.238282-.566406-1.867188-.132813-.652344-.203125-1.3125-.203125-1.960938 0-.648437.070312-1.3125.203125-1.949218.128906-.640625.316406-1.269532.566406-1.871094s.5625-1.191406.921875-1.730469c.359375-.550781.777344-1.058593 1.238282-1.519531.460937-.460938.96875-.878906 1.523437-1.238281.539063-.363281 1.117187-.671875 1.726563-.921875.601562-.25 1.230468-.441406 1.871093-.570313 1.289063-.257812 2.621094-.257812 3.910157 0 .640624.128907 1.257812.320313 1.871093.570313.597657.25 1.179688.558594 1.71875.921875.550781.359375 1.058594.777343 1.519531 1.238281 1.871094 1.859375 2.941407 4.441406 2.941407 7.070312 0 .648438-.070313 1.308594-.203125 1.960938-.128906.628906-.316406 1.257812-.566406 1.867188-.25.601562-.5625 1.179687-.921876 1.722656-.367187.550781-.777343 1.058594-1.25 1.519531-.460937.46875-.96875.878906-1.519531 1.25-.539062.359375-1.121093.667969-1.71875.917969-.613281.25-1.230469.441406-1.871093.570312-.652344.132813-1.3125.191406-1.960938.191406zm0 0"/><path d="m450.628906 430.03125v-27.863281c0-15.140625-12.316406-27.457031-27.457031-27.457031h-255.257813c-15.140624 0-27.457031 12.316406-27.457031 27.457031v27.863281c-31.726562 5.40625-55.953125 33.097656-55.953125 66.335938v5.632812c0 5.523438 4.476563 10 10 10h402.078125c5.519531 0 10-4.476562 10-10v-5.632812c0-33.238282-24.230469-60.929688-55.953125-66.335938zm-345.925781 61.96875c2.210937-24.039062 22.488281-42.925781 47.09375-42.925781h167.207031c5.523438 0 10-4.480469 10-10 0-5.523438-4.476562-10-10-10h-158.546875v-26.90625c0-4.113281 3.34375-7.457031 7.457031-7.457031h255.257813c4.113281 0 7.457031 3.34375 7.457031 7.457031v26.90625h-28.628906c-5.523438 0-10 4.476562-10 10 0 5.519531 4.476562 10 10 10h37.285156c24.605469 0 44.882813 18.886719 47.09375 42.925781zm0 0"/><path d="m255.539062 282.433594c-.207031 7.796875 2.65625 15.660156 8.59375 21.59375v.003906l3.101563 3.101562c5.558594 5.558594 12.945313 8.617188 20.804687 8.617188 7.859376 0 15.246094-3.058594 20.804688-8.617188l90.917969-90.917968c5.554687-5.558594 8.617187-12.945313 8.617187-20.804688 0-7.855468-3.0625-15.246094-8.617187-20.800781l-3.105469-3.105469c-5.9375-5.9375-13.796875-8.800781-21.59375-8.589844l-129.582031-129.585937c.003906-.265625.011719-.535156.011719-.804687 0-7.855469-3.0625-15.246094-8.621094-20.804688l-3.101563-3.101562c-5.558593-5.558594-12.945312-8.617188-20.804687-8.617188s-15.246094 3.058594-20.800782 8.617188l-90.921874 90.917968c-11.46875 11.472656-11.46875 30.136719 0 41.605469l3.105468 3.105469c5.734375 5.734375 13.269532 8.601562 20.800782 8.601562.265624 0 .527343-.003906.792968-.011718l35.105469 35.105468-145.542969 137.523438c-9.6875 8.859375-15.1875 20.964844-15.4921872 34.09375-.3046878 13.160156 4.6562502 25.535156 13.9648432 34.84375 9.039063 9.039062 20.964844 13.976562 33.699219 13.976562.378907 0 .761719-.003906 1.144531-.015625 13.128907-.300781 25.230469-5.800781 34.09375-15.484375l137.515626-145.554687zm130.078126-93.683594c1.78125 1.78125 2.761718 4.144531 2.761718 6.660156 0 2.519532-.980468 4.882813-2.761718 6.664063l-90.917969 90.917969c-1.777344 1.777343-4.144531 2.757812-6.660157 2.757812-2.515624 0-4.882812-.980469-6.660156-2.761719l-3.105468-3.101562c-3.671876-3.675781-3.671876-9.652344 0-13.324219l90.917968-90.917969c3.675782-3.671875 9.648438-3.671875 13.320313 0zm-270.230469-61.75c-3.671875-3.675781-3.671875-9.648438 0-13.324219l90.917969-90.917969c1.777343-1.777343 4.144531-2.757812 6.660156-2.757812s4.882812.980469 6.660156 2.761719l3.105469 3.101562c1.777343 1.78125 2.757812 4.148438 2.757812 6.660157 0 2.519531-.980469 4.882812-2.757812 6.664062l-90.933594 90.933594c-3.675781 3.65625-9.640625 3.652344-13.308594-.015625zm30.53125 17.285156c.011719-.015625.023437-.027344.039062-.039062l91.078125-91.078125 118.175782 118.175781-91.238282 91.238281-118.175781-118.175781zm-77.597657 234.914063c-.042968.042969-.082031.089843-.121093.132812-5.152344 5.652344-12.199219 8.859375-19.84375 9.035157-7.652344.207031-14.832031-2.703126-20.238281-8.109376s-8.285157-12.59375-8.109376-20.234374c.175782-7.644532 3.386719-14.691407 9.039063-19.84375.042969-.039063.085937-.082032.128906-.121094l146.019531-137.96875 31.085938 31.089844zm0 0"/>
</svg>