<?xml version="1.0" encoding="iso-8859-1"?>
<!-- Generator: Adobe Illustrator 19.0.0, SVG Export Plug-In . SVG Version: 6.00 Build 0)  -->
<svg version="1.1" id="Capa_1" xmlns="http://www.w3.org/2000/svg" xmlns:xlink="http://www.w3.org/1999/xlink" x="0px" y="0px"
	 viewBox="0 0 480 480" style="enable-background:new 0 0 480 480;" xml:space="preserve">
<g>
	<g>
		<g>
			<path d="M373.234,464h-336V16h256v80h80v24h16V84.688L304.546,0H21.234v480h368V344h-16V464z M309.234,27.312L361.922,80h-52.688
				V27.312z"/>
			<rect x="69.234" y="48" width="16" height="16"/>
			<rect x="101.234" y="48" width="160" height="16"/>
			<rect x="69.234" y="80" width="192" height="16"/>
			<rect x="69.234" y="112" width="272" height="16"/>
			<rect x="69.234" y="144" width="272" height="16"/>
			<rect x="69.234" y="176" width="272" height="16"/>
			<rect x="69.234" y="208" width="272" height="16"/>
			<rect x="69.234" y="240" width="240" height="16"/>
			<rect x="69.234" y="272" width="240" height="16"/>
			<rect x="69.234" y="304" width="224" height="16"/>
			<rect x="69.234" y="336" width="208" height="16"/>
			<path d="M216.434,411.84c5.396,0.039,10.608-1.961,14.592-5.6c2-1.6,2.6-2.08,4.592-2.08c1.992,0,2.592,0.48,4.592,2.08
				c8.307,7.461,20.901,7.461,29.208,0c2-1.6,2.608-2.088,4.608-2.088s2.608,0.48,4.616,2.088c3.993,3.635,9.208,5.634,14.608,5.6
				v-16c-2,0-2.608-0.48-4.616-2.088c-8.312-7.454-20.904-7.454-29.216,0c-2,1.6-2.608,2.088-4.608,2.088s-2.592-0.48-4.6-2.08
				c-8.299-7.466-20.893-7.466-29.192,0c-2,1.6-2.6,2.08-4.584,2.08c-1.984,0-2.592-0.48-4.592-2.08
				c-3.988-3.643-9.207-5.643-14.608-5.6v16c1.984,0,2.584,0.48,4.584,2.08C205.812,409.879,211.031,411.879,216.434,411.84z"/>
			<path d="M444.626,110.792l-14.592-6.576c-12.087-5.439-26.296-0.05-31.735,12.037c0,0.001-0.001,0.002-0.001,0.003
				l-106.2,235.864l11.664,52.04l46.696-25.76l106.2-235.872C462.075,130.441,456.694,116.25,444.626,110.792z M314.738,379.76
				l-2.912-12.968l14.584,6.568L314.738,379.76z M340.282,362.048l-29.216-13.088l85.368-189.664l29.184,13.144L340.282,362.048z
				 M442.034,136l-9.848,21.88l-29.184-13.144l9.856-21.872c1.818-4.023,6.551-5.813,10.576-4l14.592,6.56
				C442.052,127.239,443.846,131.973,442.034,136z"/>
		</g>
	</g>
</g>
<g>
</g>
<g>
</g>
<g>
</g>
<g>
</g>
<g>
</g>
<g>
</g>
<g>
</g>
<g>
</g>
<g>
</g>
<g>
</g>
<g>
</g>
<g>
</g>
<g>
</g>
<g>
</g>
<g>
</g>
</svg>
