<svg id="Layer_1" data-name="Layer 1" xmlns="http://www.w3.org/2000/svg" viewBox="0 0 26 26"><defs><style>.cls-1{fill:#fff;}</style></defs><title>Contract Type</title><g id="_2zI2Gg.tif" data-name="2zI2Gg.tif"><path class="cls-1" d="M3,25.51,3.19.69h.14L15.67.79a.36.36,0,0,1,.27.12c1.75,1.77,3.49,3.55,5.24,5.33.43.43.86.87,1.28,1.31a.39.39,0,0,1,.1.25q0,3.35,0,6.7c0,3.65-.07,7.31-.1,11v.21Zm7.62-4.87c.13-.2.25-.37.36-.55a4.24,4.24,0,0,0,.69-2.59,1.44,1.44,0,0,0-1.42-1.33,1.66,1.66,0,0,0-1.5.84,3.31,3.31,0,0,0-.12,3.59l.22.36c-.16.14-.32.26-.48.39a.54.54,0,1,0,.68.84c.2-.16.39-.34.6-.5a.26.26,0,0,1,.17-.05,2.36,2.36,0,0,0,1.12.05,3.47,3.47,0,0,0,2.39-1.56l.18-.25c0,.12.08.22.11.31a.71.71,0,0,0,1.11.44,5,5,0,0,0,.68-.45A3,3,0,0,1,17,19.39c.21,0,.37-.25.39-.46A.49.49,0,0,0,17,18.4a1.3,1.3,0,0,0-.52,0,3,3,0,0,0-1.33.62l-.67.51a1.83,1.83,0,0,0-.12-.31,4.17,4.17,0,0,0-.26-.57.65.65,0,0,0-1.05-.08,2.48,2.48,0,0,0-.19.26c-.27.38-.52.79-.82,1.15A2.15,2.15,0,0,1,10.6,20.64Zm5-12.84,5.67,0L15.6,2.13ZM6.9,9.36v1.06l12.41.11V9.47Zm0,3.22,12.4.11V11.63l-12.4-.11Zm12.4,1.21L6.86,13.68v1.06l12.41.11ZM6.94,5V6.1l7,.06V5.1Zm7,2.22-7-.06V8.26l7,.06Z"/></g></svg>