<svg xmlns="http://www.w3.org/2000/svg" xmlns:xlink="http://www.w3.org/1999/xlink" version="1.1" style="" xml:space="preserve" width="512" height="512"><rect id="backgroundrect" width="100%" height="100%" x="0" y="0" fill="none" stroke="none"/>


















<g class="currentLayer" style=""><title>Layer 1</title><g id="svg_1" class="" fill="#ffffff" fill-opacity="1">
	<g id="svg_2" fill="#ffffff" fill-opacity="1">
		<path d="M437.02,74.98C388.668,26.629,324.381,0,256,0C187.62,0,123.333,26.628,74.981,74.98l-0.002,0.001l-0.001,0.001    C26.628,123.335,0,187.621,0,256c0,0.001,0,0.002,0,0.002v0.001c0.001,55.903,17.704,109.018,51.197,153.605    c2.833,3.772,7.276,5.991,11.993,5.991h385.622c4.718,0,9.16-2.219,11.993-5.992c33.491-44.588,51.193-97.703,51.194-153.604    v-0.001H512c0,0,0-0.001,0-0.002C512,187.62,485.371,123.332,437.02,74.98z M441.171,385.6H70.831    c-23.869-33.994-37.652-73.226-40.336-114.599L47.134,271c8.284,0,15-6.717,14.999-15.001c0-8.284-6.717-14.999-15.001-14.999    l-16.622,0.001c3.362-51.045,23.738-97.512,55.509-133.768l11.684,11.683c2.929,2.929,6.767,4.393,10.606,4.393    c3.839,0,7.678-1.465,10.607-4.394c5.858-5.858,5.857-15.355-0.001-21.213L107.232,86.02C143.488,54.249,189.955,33.872,241,30.51    v16.624c0,8.284,6.716,15,15,15s15-6.716,15-15V30.51c51.045,3.362,97.512,23.739,133.769,55.511l-11.684,11.681    c-5.858,5.857-5.859,15.355-0.002,21.213c2.929,2.929,6.769,4.394,10.607,4.394s7.677-1.464,10.605-4.393l11.685-11.683    c31.772,36.256,52.148,82.723,55.51,133.768L464.867,241c-0.001,0-0.001,0-0.001,0c-8.283,0-14.999,6.715-15,14.999    c-0.001,8.284,6.715,15.001,14.999,15.001l16.64,0.001C478.82,312.373,465.039,351.604,441.171,385.6z" id="svg_3" fill="#ffffff" fill-opacity="1"/>
	</g>
</g><g id="svg_4" class="selected" fill="#ffffff" fill-opacity="1">
	<g id="svg_5" fill="#ffffff" fill-opacity="1">
		<path d="M352.399,482H159.6c-8.284,0-15,6.716-15,15s6.716,15,15,15h192.8c8.284,0,15-6.716,15-15S360.684,482,352.399,482z" id="svg_6" fill="#ffffff" fill-opacity="1"/>
	</g>
</g><g id="svg_7" class="" fill="#ffffff" fill-opacity="1">
	<g id="svg_8" fill="#ffffff" fill-opacity="1">
		<path d="M350.029,161.97c-5.856-5.859-15.354-5.859-21.212,0l-40.024,40.023c-9.566-5.83-20.795-9.193-32.794-9.193    c-34.849,0-63.2,28.351-63.2,63.2s28.352,63.2,63.2,63.2c34.849,0,63.199-28.352,63.199-63.2c0-11.999-3.362-23.227-9.192-32.794    l40.023-40.023C355.887,177.325,355.887,167.828,350.029,161.97z M256,289.2c-18.307,0-33.2-14.894-33.2-33.2    c0-18.306,14.894-33.2,33.2-33.2c18.306,0,33.199,14.893,33.199,33.2S274.306,289.2,256,289.2z" id="svg_9" fill="#ffffff" fill-opacity="1"/>
	</g>
</g><g id="svg_10">
</g><g id="svg_11">
</g><g id="svg_12">
</g><g id="svg_13">
</g><g id="svg_14">
</g><g id="svg_15">
</g><g id="svg_16">
</g><g id="svg_17">
</g><g id="svg_18">
</g><g id="svg_19">
</g><g id="svg_20">
</g><g id="svg_21">
</g><g id="svg_22">
</g><g id="svg_23">
</g><g id="svg_24">
</g></g></svg>