<svg id="Layer_1" data-name="Layer 1" xmlns="http://www.w3.org/2000/svg" viewBox="0 0 26 26"><defs><style>.cls-1{fill:#fff;}</style></defs><title>Enter Data White</title><path class="cls-1" d="M25.07,8.84l-.86-.5c.1-.28.2-.54.27-.79.25-.84-.16-1.34-.95-1.63a.84.84,0,0,0-.75.11,3.55,3.55,0,0,0-1.09,1.16c-1.08,1.7-2.17,3.4-3.21,5.14a48.55,48.55,0,0,0-3.59,7.13,5.17,5.17,0,0,0-.47,1.76c0,.12.05.29.13.33a.42.42,0,0,0,.38,0,8.13,8.13,0,0,0,1-.81,34.75,34.75,0,0,0,3-3.74c1.74-2.44,3.3-5,4.81-7.6l.12-.19.57.33c-.06.1-.09.17-.14.24-.8,1.39-1.62,2.78-2.42,4.18-.11.18-.22.36-.32.55a.66.66,0,0,0,.2.85c.23.17.32.15.46-.09l3.17-5.46C25.58,9.33,25.52,9.1,25.07,8.84Z"/><path class="cls-1" d="M16,21.26v1l-13.29-.1v-1l11.2.09h0a3.62,3.62,0,0,1,.18-1.06L2.74,20.07v-1l11.75.09c.14-.35.28-.7.44-1.06-3.82,0-8.54-.06-12.17-.1V17c3.77,0,8.72.07,12.61.1l.53-1.1L2.78,15.9v-1L16,14.94v.83c.59-1.16,1.26-2.38,2-3.7.37-.61.74-1.22,1.12-1.83,0-.81,0-1.62,0-2.43a.37.37,0,0,0-.1-.24c-.41-.42-.82-.85-1.24-1.27-1.68-1.71-3.37-3.42-5-5.14a.36.36,0,0,0-.26-.11L.49.94s.05,0,0,0c-.07,8,.07,16,0,23.94l18.56.17v-.21q0-3.69.07-7.38a34.74,34.74,0,0,1-2.88,3.58ZM12.49,2.34,17.9,7.86l-5.46-.05ZM2.8,12.79,16,12.85v1L2.79,13.82Z"/><path class="cls-1" d="M16,16v-.19a1.74,1.74,0,0,1-.1.19Z"/></svg>