<svg height="499pt" viewBox="-1 0 499 499.2" width="499pt" xmlns="http://www.w3.org/2000/svg"><path d="m344.1875 28.777344-40.085938 38.832031v-67.609375h-304v384h172.6875l115.199219 115.199219 208.113281-199.792969v-118.71875zm99.222656 211.222656 36.691406-36.6875v73.375zm-427.308594 128v-352h272v67.113281l-64.050781 62.046875c.007813-.390625.050781-.777344.050781-1.160156v-8h-88v88h6.566407l-65.96875 63.902344 80.089843 80.097656zm145.695313-162.527344c-3.175781.910156-6.410156 1.625-9.695313 2.03125v-55.503906h55.503907c-.496094 3.96875-1.425781 7.855469-2.65625 11.65625zm-62.296875 82.625 244.511719-236.875 132.777343 132.777344-56 56 55.886719 55.886719-188.464843 180.914062zm0 0"/><path d="m338.441406 85.660156 11.3125-11.3125 104 104-11.3125 11.3125zm0 0"/><path d="m314.441406 109.660156 11.3125-11.3125 104 104-11.3125 11.3125zm0 0"/><path d="m290.441406 133.660156 11.3125-11.3125 104 104-11.3125 11.3125zm0 0"/><path d="m258.441406 165.65625 11.3125-11.3125 64 64-11.3125 11.3125zm0 0"/><path d="m234.441406 189.65625 11.3125-11.3125 64 64-11.3125 11.3125zm0 0"/><path d="m210.441406 213.65625 11.3125-11.3125 64 64-11.3125 11.3125zm0 0"/><path d="m186.441406 237.65625 11.3125-11.3125 64 64-11.3125 11.3125zm0 0"/><path d="m154.441406 269.65625 11.3125-11.3125 151.996094 151.996094-11.3125 11.316406zm0 0"/><path d="m130.441406 293.65625 11.3125-11.3125 151.996094 151.996094-11.3125 11.316406zm0 0"/><path d="m360.101562 228.6875-99.3125 99.3125 75.3125 75.3125 99.308594-99.3125zm-76.691406 99.3125 76.691406-76.6875 52.6875 52.6875-76.6875 76.6875zm0 0"/><path d="m112.101562 192h8v-72h72v-8c0-44.113281-35.890624-80-80-80-44.113281 0-80 35.886719-80 80s35.886719 80 80 80zm0-144c32.574219 0 59.550782 24.472656 63.503907 56h-71.503907v71.503906c-31.53125-3.953125-56-30.929687-56-63.503906 0-35.289062 28.710938-64 64-64zm0 0"/><path d="m208.101562 32h64v16h-64zm0 0"/><path d="m208.101562 64h64v16h-64zm0 0"/><path d="m32.101562 336h72v16h-72zm0 0"/><path d="m32.101562 304h32v16h-32zm0 0"/><path d="m32.101562 272h32v16h-32zm0 0"/><path d="m32.101562 240h48v16h-48zm0 0"/><path d="m32.101562 208h88v16h-88zm0 0"/></svg>