<svg id="Layer_1" data-name="Layer 1" xmlns="http://www.w3.org/2000/svg" xmlns:xlink="http://www.w3.org/1999/xlink" viewBox="0 0 56 56"><defs><style>.cls-1{fill:none;}.cls-2{fill:#ee3f7a;}.cls-3{clip-path:url(#clip-path);}.cls-4,.cls-5{fill:#fff;}.cls-4{opacity:0;}.cls-5{fill-rule:evenodd;}</style><clipPath id="clip-path"><rect class="cls-1" x="13" y="11.75" width="30" height="32.5"/></clipPath></defs><title>Expiring</title><circle class="cls-2" cx="28" cy="28" r="28"/><g class="cls-3"><rect class="cls-4" x="13" y="11.75" width="30" height="32.5"/><path class="cls-5" d="M28.09,23A1,1,0,0,0,27,24v1H26a2.84,2.84,0,0,0-2.86,2.94v1.95A2.89,2.89,0,0,0,26,32.77h1v3.91H26a1,1,0,0,1-1-1.07,1,1,0,0,0-1-1,1,1,0,0,0-1.07,1A2.91,2.91,0,0,0,26,38.54h1v1a1,1,0,0,0,1,1,1,1,0,0,0,1.07-1v-.89h1a2.81,2.81,0,0,0,2.85-2.84v-2A2.81,2.81,0,0,0,30,30.91H29v-4h1a1,1,0,0,1,1,1,1,1,0,0,0,1,1,1,1,0,0,0,1.07-1A2.92,2.92,0,0,0,30.05,25h-1V24A1,1,0,0,0,28.09,23ZM30,32.77a1,1,0,0,1,1,1v2a1,1,0,0,1-1,1H29v-4Zm-2.95-6v4H26a1,1,0,0,1-1-1V27.8a1,1,0,0,1,1-1.07Z"/><path class="cls-5" d="M25.09,11.75a3.83,3.83,0,1,0,0,7.65v.35a13.08,13.08,0,0,0-4.41,1.91l-1.33-1.48.71-.7a.79.79,0,0,0,.26-1.3l-2.55-2.87A1,1,0,0,0,17,15a1,1,0,0,0-.57.18l-3,2.52a.87.87,0,0,0-.09,1.3l2.56,3a.91.91,0,0,0,.71.34.89.89,0,0,0,.62-.26l.79-.6,1.32,1.47a12.06,12.06,0,0,0-3.88,9,12.58,12.58,0,0,0,25.15,0,12.33,12.33,0,0,0-3.88-8.95l1.32-1.47.79.6a1.06,1.06,0,0,0,.66.26.87.87,0,0,0,.67-.34l2.55-3a.94.94,0,0,0-.17-1.3l-2.91-2.52A1.34,1.34,0,0,0,39,15a.78.78,0,0,0-.69.35l-2.55,2.87a.85.85,0,0,0,.08,1.3l.8.7-1.33,1.48a12.14,12.14,0,0,0-4.41-1.91V19.4a3.83,3.83,0,1,0,0-7.65ZM28,21.22a10.73,10.73,0,0,1,10.77,10.6A10.73,10.73,0,1,1,28,21.22Zm11.21-4,1.41,1.22-1.24,1.39L38,18.61ZM17,17.22l1.24,1.39-1.42,1.22-1.23-1.39Zm12.09.09v2H27v-2ZM31,13.58a2,2,0,0,1,2,1.91,2,2,0,0,1-2,2v-1a1,1,0,0,0-1-1H26.15a1,1,0,0,0-1,1v1a2.1,2.1,0,0,1-2-2,2,2,0,0,1,2-1.91Z"/></g></svg>