<svg id="Layer_1" data-name="Layer 1" xmlns="http://www.w3.org/2000/svg" xmlns:xlink="http://www.w3.org/1999/xlink" viewBox="0 0 56 56"><defs><style>.cls-1{fill:none;}.cls-2{fill:#2d9297;}.cls-3{clip-path:url(#clip-path);}.cls-4,.cls-5{fill:#fff;}.cls-4{opacity:0;}.cls-5{fill-rule:evenodd;}</style><clipPath id="clip-path"><rect class="cls-1" x="13" y="13" width="30" height="30"/></clipPath></defs><title>Artboard 1</title><circle class="cls-2" cx="28" cy="28" r="28"/><g class="cls-3"><rect class="cls-4" x="13" y="13" width="30" height="30"/><path class="cls-5" d="M32.14,19.67a5.1,5.1,0,0,0-1.76.31,4.1,4.1,0,0,0-2.76,4.67A4.51,4.51,0,0,0,32.13,28h0a4.82,4.82,0,0,0,3.23-1.22A3.87,3.87,0,0,0,36,21.52,4.75,4.75,0,0,0,32.14,19.67Zm0,1.67a3.29,3.29,0,0,1,1.06.19,2.42,2.42,0,0,1,0,4.62,3.29,3.29,0,0,1-1.06.19,2.93,2.93,0,0,1-1.95-.73,2.33,2.33,0,0,1,0-3.53A2.89,2.89,0,0,1,32.14,21.34Z"/><path class="cls-5" d="M40.65,13a26.93,26.93,0,0,0-5.64.54l-.1,0a15.58,15.58,0,0,0-8.21,4.6,22.63,22.63,0,0,0-2.65,3.44h-.76A9,9,0,0,0,18.52,23a9.26,9.26,0,0,0-3.33,3.69L15,27.1a.89.89,0,0,0,.78,1.28H16l4.13.38c-.07.13-.13.26-.2.4-.31.61-.59,1.19-.87,1.74a.89.89,0,0,0-.1.48,5.89,5.89,0,0,0-1.59,1.17c-1.81,1.81-4,8.54-4.18,9.3A.88.88,0,0,0,14,43a.84.84,0,0,0,.27,0c.75-.24,7.45-2.38,9.26-4.2a6.4,6.4,0,0,0,1.16-1.62h.06a.9.9,0,0,0,.39-.1l1.74-.88.37-.19L27.59,40v.25a.87.87,0,0,0,.87.88.94.94,0,0,0,.39-.1l.42-.21a9.15,9.15,0,0,0,5-8.16v-.6a23.54,23.54,0,0,0,3.53-2.74,15.86,15.86,0,0,0,4.58-8.28.31.31,0,0,0,0-.1,29,29,0,0,0,.52-7.11.88.88,0,0,0-.85-.85ZM20.08,32.8l1,1-1.85,1.86a.88.88,0,0,0,0,1.25.88.88,0,0,0,1.23,0L22.3,35l1,1a4.62,4.62,0,0,1-1,1.49c-1,1-4.51,2.38-6.9,3.21.83-2.41,2.2-5.93,3.2-6.94A4.33,4.33,0,0,1,20.08,32.8Zm12.43.38h0a7.33,7.33,0,0,1-3.27,5.67L29,35.12C30.12,34.51,31.33,33.86,32.51,33.18ZM21.72,29.47l4.85,4.89-.46.23-1.19.6-4-4.06.59-1.19Zm12.65-14a7.4,7.4,0,0,0,6.08,6.13,13.92,13.92,0,0,1-3.86,6.46,36.69,36.69,0,0,1-8.38,5.43l-5.66-5.69A37,37,0,0,1,28,19.39,13.77,13.77,0,0,1,34.37,15.5ZM23,23.37h0c-.71,1.22-1.37,2.47-2,3.69l-3.79-.35A7.39,7.39,0,0,1,23,23.37ZM40.6,14.76h.58a27.25,27.25,0,0,1-.35,5.15,5.62,5.62,0,0,1-4.76-4.8A26.14,26.14,0,0,1,40.6,14.76Z"/><path class="cls-5" d="M27.16,28a.84.84,0,1,0,.84.84A.84.84,0,0,0,27.16,28Z"/></g></svg>