<svg id="Layer_1" data-name="Layer 1" xmlns="http://www.w3.org/2000/svg" viewBox="0 0 56 56"><defs><style>.cls-1{fill:#f47820;}</style></defs><title>Approval orange</title><g id="user_profile_edit"><path class="cls-1" d="M27,28.49a2.25,2.25,0,1,0-2.25-2.25A2.25,2.25,0,0,0,27,28.49Zm6.75-2.22V21.5l-3.14-3.14H20.27v18h13.5v0a5.06,5.06,0,0,0,0-10.06ZM30.4,19.72l2,2h-2Zm-9,15.52V19.48h7.87v3.38h3.38v3.41a5.08,5.08,0,0,0-4.21,3.34H23.65a1.11,1.11,0,0,0-1.13,1.13v3.37H29a4.82,4.82,0,0,0,1,1.13Zm11.81,0a3.94,3.94,0,1,1,3.94-3.94A3.95,3.95,0,0,1,33.21,35.24Z"/><polygon class="cls-1" points="32.65 33.55 30.96 33.55 30.96 31.86 32.65 33.55"/><rect class="cls-1" x="31.78" y="29.54" width="3.98" height="2.39" transform="translate(-11.84 32.88) rotate(-45)"/></g></svg>