<svg height="480pt" viewBox="-31 0 479 480" width="480pt" xmlns="http://www.w3.org/2000/svg"><path d="m24.5 16h49.753906l4.964844 19.878906c1.78125 7.125 8.183594 12.125 15.527344 12.121094h99.507812c7.34375.003906 13.746094-4.996094 15.527344-12.121094l4.964844-19.878906h49.753906c4.417969 0 8 3.582031 8 8v104h16v-104c0-13.253906-10.746094-24-24-24h-240c-13.253906 0-24 10.746094-24 24v432c0 13.253906 10.746094 24 24 24h40v-16h-40c-4.417969 0-8-3.582031-8-8v-432c0-4.417969 3.582031-8 8-8zm169.753906 16h-99.507812l-4-16h107.507812zm0 0"/><path d="m392.5 144h-288c-13.253906 0-24 10.746094-24 24v288c0 13.253906 10.746094 24 24 24h288c13.253906 0 24-10.746094 24-24v-288c0-13.253906-10.746094-24-24-24zm-288 16h288c4.417969 0 8 3.582031 8 8v24h-304v-24c0-4.417969 3.582031-8 8-8zm288 304h-288c-4.417969 0-8-3.582031-8-8v-248h304v248c0 4.417969-3.582031 8-8 8zm0 0"/><path d="m112.5 168h16v16h-16zm0 0"/><path d="m144.5 168h16v16h-16zm0 0"/><path d="m176.5 168h16v16h-16zm0 0"/><path d="m88.5 80h16v16h-16zm0 0"/><path d="m120.5 80h16v16h-16zm0 0"/><path d="m152.5 80h16v16h-16zm0 0"/><path d="m184.5 80h16v16h-16zm0 0"/><path d="m376.5 224h-256c-4.417969 0-8 3.582031-8 8v64c0 4.417969 3.582031 8 8 8h256c4.417969 0 8-3.582031 8-8v-64c0-4.417969-3.582031-8-8-8zm-8 64h-240v-48h240zm0 0"/><path d="m112.5 336h96v16h-96zm0 0"/><path d="m112.5 368h96v16h-96zm0 0"/><path d="m112.5 400h96v16h-96zm0 0"/><path d="m112.5 432h96v16h-96zm0 0"/><path d="m376.5 336h-144c-4.417969 0-8 3.582031-8 8v96c0 4.417969 3.582031 8 8 8h144c4.417969 0 8-3.582031 8-8v-96c0-4.417969-3.582031-8-8-8zm-8 96h-128v-80h128zm0 0"/></svg>