<svg id="Layer_1" data-name="Layer 1" xmlns="http://www.w3.org/2000/svg" viewBox="0 0 19 19"><defs><style>.cls-1{fill:#1e3363;}</style></defs><title>SIGN</title><path class="cls-1" d="M18.51,6.39,17.87,6c.07-.21.14-.4.2-.59.19-.63-.12-1-.71-1.22a.63.63,0,0,0-.56.09,2.56,2.56,0,0,0-.81.86C15.18,6.43,14.36,7.7,13.59,9a36.29,36.29,0,0,0-2.68,5.32,3.74,3.74,0,0,0-.35,1.32.36.36,0,0,0,.1.25.35.35,0,0,0,.28,0,5.92,5.92,0,0,0,.71-.6,26,26,0,0,0,2.23-2.79c1.3-1.83,2.46-3.75,3.59-5.68l.1-.14.42.24-.1.18-1.82,3.12c-.08.14-.16.27-.23.42a.48.48,0,0,0,.15.63c.17.12.24.11.34-.07.79-1.36,1.58-2.71,2.36-4.07C18.89,6.76,18.84,6.59,18.51,6.39Z"/><path class="cls-1" d="M11.75,15.67v.74l-9.93-.08v-.76l8.36.07h0a2.91,2.91,0,0,1,.14-.79l-8.49-.06V14l8.77.07c.1-.26.21-.52.33-.79l-9.09-.07v-.76l9.42.07c.12-.27.26-.54.4-.82l-9.81,0v-.76c1.68,0,8.2,0,9.88,0v.62c.44-.87.94-1.78,1.53-2.76.27-.46.55-.92.83-1.37,0-.61,0-1.21,0-1.81a.25.25,0,0,0-.08-.18c-.3-.32-.61-.63-.92-1L9.36.66a.28.28,0,0,0-.2-.08L.16.5h0c0,6,0,11.92,0,17.88L14,18.5v-.15c0-1.84,0-3.68.05-5.51a23.84,23.84,0,0,1-2.16,2.67ZM9.12,1.55l4,4.11-4.08,0ZM1.89,9.35l9.88,0v.76l-9.88,0Z"/><path class="cls-1" d="M11.75,11.71v-.14a.91.91,0,0,0-.07.14Z"/></svg>