<svg id="Layer_1" data-name="Layer 1" xmlns="http://www.w3.org/2000/svg" xmlns:xlink="http://www.w3.org/1999/xlink" viewBox="0 0 56 56"><defs><style>.cls-1{fill:none;}.cls-2{fill:#765da8;}.cls-3{clip-path:url(#clip-path);}.cls-4,.cls-6{fill:#fff;}.cls-4{opacity:0;}.cls-5{fill:#feffff;}.cls-5,.cls-6{fill-rule:evenodd;}</style><clipPath id="clip-path"><rect class="cls-1" x="13" y="13.54" width="30" height="28.93"/></clipPath></defs><title>Artboard 1</title><circle class="cls-2" cx="28" cy="28" r="28"/><g class="cls-3"><rect class="cls-4" x="13" y="13.54" width="30" height="28.93"/><path class="cls-5" d="M38.7,13.54a2.17,2.17,0,0,0-1.92,1.1l-1.26,2.15-4,6.72H15.89A2.83,2.83,0,0,0,13,26.23V39.6a3,3,0,0,0,2.89,2.86H39.74a2.86,2.86,0,0,0,2.89-2.86V26.44a2.84,2.84,0,0,0-2.89-2.78h-.81l3.48-5.73a2.34,2.34,0,0,0-.89-3.14l-1.63-.93A2.37,2.37,0,0,0,38.7,13.54Zm1,11.9a.93.93,0,0,1,1,1V39.6a1,1,0,0,1-1,.93H15.81a.92.92,0,0,1-1-.93V26.44a1,1,0,0,1,1-1H30.33l-.74,1.15a1.06,1.06,0,0,0-.07.5l-.3,4H26a.92.92,0,0,0-.89,1A1,1,0,0,0,26,33h11.7a1,1,0,1,0,0-1.93H33.3l1.55-1c.08-.07.3-.14.3-.36l2.59-4.29Zm-8.3,3.22,1.19.72-1.26.78Zm5.26-10,2.22,1.28L34,28,31.74,26.8Zm2.09-3.2a.54.54,0,0,1,.21.05l1.7.93c.07.15.15.36.07.43l-.81,1.36-2.22-1.29.81-1.36A.26.26,0,0,1,38.72,15.45Z"/><path class="cls-6" d="M26.7,37.11a1.1,1.1,0,0,0,0,2.14h11a1.08,1.08,0,0,0,0-2.14Z"/><path class="cls-6" d="M20.46,26.4a1,1,0,0,0-1.06,1V28a3,3,0,0,0-2.11,2.85c0,1.57,1.46,2.47,2.52,3.22.81.6,1.79,1.12,1.79,1.72s-.57.9-1.14.9a1,1,0,0,1-1.06-.9,1,1,0,0,0-1-1,1.07,1.07,0,0,0-1.14,1A3,3,0,0,0,19.4,38.6v.67a1.11,1.11,0,0,0,1.06,1,1.12,1.12,0,0,0,1.14-1V38.6a3,3,0,0,0,2.11-2.77c0-1.57-1.46-2.55-2.52-3.3-.81-.52-1.79-1.12-1.79-1.64a1,1,0,0,1,1.06-1.05,1.12,1.12,0,0,1,1.14,1.05,1,1,0,0,0,1,.9,1.06,1.06,0,0,0,1.14-.9A3,3,0,0,0,21.6,28v-.67A1.11,1.11,0,0,0,20.46,26.4Z"/></g></svg>