<?xml version="1.0" encoding="iso-8859-1"?>
<!-- Generator: Adobe Illustrator 18.1.1, SVG Export Plug-In . SVG Version: 6.00 Build 0)  -->
<svg version="1.1" id="Capa_1" xmlns="http://www.w3.org/2000/svg" xmlns:xlink="http://www.w3.org/1999/xlink" x="0px" y="0px"
	 viewBox="0 0 48.858 48.858" style="enable-background:new 0 0 48.858 48.858;" xml:space="preserve">
<g>
	<path style="fill:#010002;" d="M5.659,48.858h37.539c0.345,0,0.625-0.28,0.625-0.625V17.272c0-0.345-0.28-0.625-0.625-0.625h-16.15
		V0.646c0-0.345-0.28-0.625-0.625-0.625H5.659c-0.345,0-0.625,0.28-0.625,0.625v47.587C5.034,48.578,5.314,48.858,5.659,48.858z
		 M6.284,1.271h19.514v16.001c0,0.345,0.28,0.625,0.625,0.625h16.15v29.711H6.284V1.271z"/>
	<path style="fill:#010002;" d="M28.976,15.31h14.218c0.327,0,0.593-0.263,0.593-0.586c0-0.205-0.105-0.392-0.261-0.482
		l-14.13-14.07c-0.167-0.166-0.426-0.217-0.646-0.129c-0.223,0.091-0.367,0.304-0.367,0.542v14.139
		C28.383,15.047,28.649,15.31,28.976,15.31z M29.568,2.007l12.183,12.131H29.568V2.007z"/>
	<path style="fill:#010002;" d="M35.043,20.822h-21.25c-0.345,0-0.625,0.28-0.625,0.625v9.081c0,0.345,0.28,0.625,0.625,0.625h21.25
		c0.345,0,0.625-0.28,0.625-0.625v-9.081C35.668,21.102,35.388,20.822,35.043,20.822z M34.418,29.903h-20v-7.831h20V29.903z"/>
	<path style="fill:#010002;" d="M31.293,33.528h-14.25c-0.345,0-0.625,0.28-0.625,0.625s0.28,0.625,0.625,0.625h14.25
		c0.345,0,0.625-0.28,0.625-0.625S31.638,33.528,31.293,33.528z"/>
</g>
<g>
</g>
<g>
</g>
<g>
</g>
<g>
</g>
<g>
</g>
<g>
</g>
<g>
</g>
<g>
</g>
<g>
</g>
<g>
</g>
<g>
</g>
<g>
</g>
<g>
</g>
<g>
</g>
<g>
</g>
</svg>
