<svg id="Layer_1" data-name="Layer 1" xmlns="http://www.w3.org/2000/svg" viewBox="0 0 26 26"><defs><style>.cls-1{fill:#fff;}</style></defs><title>Validation White</title><g id="Group_19" data-name="Group 19"><path id="Path_28" data-name="Path 28" class="cls-1" d="M25.33,5.33h-.06l-.12.07a42.32,42.32,0,0,0-9.21,8.09c-.14.16-.23.18-.4.05l-2.09-1.67-1.27-1L10.6,12.17l6.18,6.34c.1-.24.18-.45.28-.65a37.41,37.41,0,0,1,4.73-7.45,44.23,44.23,0,0,1,3.77-4.09Z"/><path id="Path_29" data-name="Path 29" class="cls-1" d="M.44,4.91V22.66H22.67V10.19a40.46,40.46,0,0,0-5.26,8.12c-.11.24-.33,1-.45,1.24-2.37-2.43-4.84-5.1-7.21-7.54.61-.49,1.69-1.47,2.3-2,.49.39.85.65,1.34,1,.8.64,1.61,1.15,2.4,1.79.19.16.3-.29.46-.47a42.39,42.39,0,0,1,6.42-6.07v-3H.44ZM17.83,9.24H3.43V6.85h14.4ZM8.91,14.19H3.43V11.8H8.91Zm4.65,5H3.43V16.84H13.56Z"/></g></svg>