<svg id="Layer_1" data-name="Layer 1" xmlns="http://www.w3.org/2000/svg" viewBox="0 0 21 21"><title>Notification</title><path id="Path_4656" data-name="Path 4656" d="M10.58,20.45a3.18,3.18,0,0,0,3.11-2.53H7.48A3.17,3.17,0,0,0,10.58,20.45Z"/><path id="Path_4657" data-name="Path 4657" d="M17.52,17.31a1.48,1.48,0,0,0,1-2.6,5.67,5.67,0,0,1-2-4.34V8A5.91,5.91,0,0,0,11.4,2.17V1.26a.86.86,0,0,0-.82-.81.85.85,0,0,0-.81.81v.91A5.91,5.91,0,0,0,4.71,8v2.35a5.67,5.67,0,0,1-2,4.34,1.48,1.48,0,0,0,1,2.6Z"/></svg>