<svg id="Layer_1" data-name="Layer 1" xmlns="http://www.w3.org/2000/svg" viewBox="0 0 26 26"><defs><style>.cls-1{fill:#fff;}</style></defs><title>Approve white</title><path class="cls-1" d="M10.16.5a2.55,2.55,0,0,1,.39.13l2.24,1.06a.37.37,0,0,0,.38,0c.73-.36,1.47-.7,2.2-1a.81.81,0,0,1,1.16.28l1.51,2a.3.3,0,0,0,.22.12l2.44.09c.59,0,.85.22.94.79.15.82.28,1.65.42,2.47a.32.32,0,0,0,.16.23l2.13,1.22A.82.82,0,0,1,24.79,9c-.26.76-.51,1.53-.77,2.29a.41.41,0,0,0,0,.4c.46.7.9,1.41,1.35,2.12a.74.74,0,0,1-.12,1l-1.84,1.78a.33.33,0,0,0-.12.31l.21,2.57a.8.8,0,0,1-.56.82l-2,.58-.56.16a.37.37,0,0,0-.17.18l-1,2.37a.77.77,0,0,1-.92.5c-.85-.18-1.7-.36-2.54-.52a.29.29,0,0,0-.24,0c-.65.52-1.29,1.05-1.93,1.58a.84.84,0,0,1-1.23,0q-1-.81-1.95-1.59a.25.25,0,0,0-.21,0l-2.57.52a.76.76,0,0,1-.87-.42c-.2-.42-.38-.86-.56-1.3s-.33-.78-.51-1.16a.37.37,0,0,0-.19-.18L3,20.34a.79.79,0,0,1-.59-.87c.08-.84.14-1.69.21-2.54a.35.35,0,0,0-.14-.33L.69,14.88a.8.8,0,0,1-.26-.82,1,1,0,0,1,.13-.27c.45-.72.92-1.44,1.37-2.16a.36.36,0,0,0,0-.25C1.7,10.57,1.42,9.76,1.15,9a.79.79,0,0,1,.4-1l2.2-1.28a.3.3,0,0,0,.16-.23c.13-.86.28-1.71.41-2.56A.76.76,0,0,1,5,3.17c.34,0,.69,0,1-.06l1.52,0A.42.42,0,0,0,8,2.87c.5-.68,1-1.35,1.52-2A.83.83,0,0,1,10.16.5Zm1.84,14-.66-.65c-.65-.66-1.3-1.31-1.94-2a.71.71,0,0,0-1.1,0c-.34.33-.67.67-1,1a.72.72,0,0,0,0,1l.41.42c1.2,1.22,2.39,2.44,3.6,3.66a2.15,2.15,0,0,0,.51.37,1,1,0,0,0,1.32-.35c.53-.79,1.06-1.58,1.58-2.37l1.59-2.38,2.39-3.57a.75.75,0,0,0-.22-1.11l-1-.7a.73.73,0,0,0-1.16.2L15.07,9.87l-2.31,3.44Z"/></svg>