<svg id="Layer_1" data-name="Layer 1" xmlns="http://www.w3.org/2000/svg" viewBox="0 0 26 26"><defs><style>.cls-1{fill:#fff;}</style></defs><title>Select Template White</title><g id="Rejected_Order" data-name="Rejected Order"><path id="Path_3530" data-name="Path 3530" class="cls-1" d="M15.86,1.91H14.45A1.69,1.69,0,0,0,13.2.42h-2A1.51,1.51,0,0,0,10,1.91H8.59V4.8h7.34C15.86,3.86,15.86,2.92,15.86,1.91ZM12.19,3.39a.7.7,0,1,1,0-1.4.77.77,0,0,1,.78.7A.93.93,0,0,1,12.19,3.39Z"/><path id="Path_3531" data-name="Path 3531" class="cls-1" d="M13.12,15.81H5.7V13.62H17.89a7.38,7.38,0,0,1,3.67.94c.07,0,.15.08.23.08V3.23H17.42V6.12H7.19V3.23H2.74V23.85H12.5a7.06,7.06,0,0,1-1.09-3.59H5.7V18.07h5.86A5.3,5.3,0,0,1,13.12,15.81ZM5.63,9.25H18.51v2.18H5.63Z"/><path id="Path_3532" data-name="Path 3532" class="cls-1" d="M23.12,19.4a5.27,5.27,0,0,0-5.7-4.3,5.18,5.18,0,0,0,.31,10.31,5.19,5.19,0,0,0,5.39-6ZM15,20.25,16.22,19l1.22,1.22,2.44-2.44L21.1,19l-3.66,3.66Z"/></g></svg>